<svg xmlns="http://www.w3.org/2000/svg" viewBox="0 0 71.53 71.53"><defs><style>.cls-1{fill:#fff;}.cls-2,.cls-3{fill:none;}.cls-2,.cls-3,.cls-4{stroke:#fff;stroke-miterlimit:10;}.cls-2{stroke-width:0.5px;}.cls-4{fill:#69d976;stroke-width:0.75px;}</style></defs><g id="Layer_2" data-name="Layer 2"><g id="이채민"><polygon class="cls-1" points="19.28 35.65 19.13 35.81 19.12 35.81 19.28 35.65"/><path class="cls-2" d="M66.29,47.25l-19,19a15.78,15.78,0,0,0-3.74-2.79l20-20A15.78,15.78,0,0,0,66.29,47.25Z"/><path class="cls-2" d="M66.29,24.29a15.77,15.77,0,0,0-3.07,4.28L43,8.32a15.77,15.77,0,0,0,4.28-3.07Z"/><path class="cls-2" d="M28,8,8,28a15.78,15.78,0,0,0-2.79-3.74l19-19A15.78,15.78,0,0,0,28,8Z"/><path class="cls-2" d="M28.57,63.22a15.77,15.77,0,0,0-4.28,3.07l-19-19A15.77,15.77,0,0,0,8.32,43Z"/><path class="cls-2" d="M63.5,43.51l-20,20a16.19,16.19,0,0,0-14.94-.28L8.32,43A16.19,16.19,0,0,0,8,28L28,8A16.19,16.19,0,0,0,43,8.32L63.22,28.57A16.19,16.19,0,0,0,63.5,43.51Z"/><polygon class="cls-3" points="70.83 36.18 36.18 70.83 8.32 42.97 0.71 35.36 8.04 28.03 28.03 8.04 35.36 0.71 70.83 36.18"/><path class="cls-4" d="M39.88,44.85l-1.29,1.29V20.5a5.39,5.39,0,0,0-5.65,0V46.14l-1.29-1.29-8.1-8.11-4.28-.29.28,4.28L31.78,53l2,2,.19.19.06.07h0l.93.93a1.13,1.13,0,0,0,1.61,0l.94-.93.13-.14L39.76,53l4.11-4.11L52,40.73l.29-4.28L48,36.74Z"/><path class="cls-4" d="M49.84,34.17l-9.33,9.35L39,45V15.47a6.26,6.26,0,0,0-6.5,0V45L31,43.52l-9.34-9.35-4.93-.32.33,4.93L31.17,52.85l2.3,2.3.22.22.07.08h0l1.08,1.08a1.31,1.31,0,0,0,1.85,0l1.08-1.08.16-.16,2.44-2.44,4.73-4.74,9.35-9.33.32-4.93ZM33.16,18.53V17.35l.68-.24a5.54,5.54,0,0,1,3.85,0l.67.24V19.7a5.67,5.67,0,0,0-1.63-.55,5.12,5.12,0,0,0-3.57.55ZM52,40.73l-8.11,8.11L39.76,53l-2.12,2.12-.13.14-.94.93a1.13,1.13,0,0,1-1.61,0L34,55.21h0L34,55.14,33.77,55l-2-2L19.55,40.73l-.28-4.28,4.28.29,8.1,8.11,1.29,1.29V20.5a5.39,5.39,0,0,1,5.65,0V46.14l1.29-1.29L48,36.74l4.28-.29Z"/></g></g></svg>