<svg xmlns="http://www.w3.org/2000/svg" viewBox="0 0 794.83 709.69"><defs><style>.cls-1,.cls-3{fill:#fff;}.cls-1,.cls-2{opacity:0.9;}.cls-4{opacity:0.8;}</style></defs><g id="Layer_2" data-name="Layer 2"><g id="이채민"><polygon class="cls-1" points="177.83 129.37 162.3 117.59 162.3 0 177.83 11.78 177.83 129.37"/><line class="cls-1" x1="494.61" y1="387" x2="794.83" y2="603.05"/><line class="cls-1" y1="38" x2="300.83" y2="254.48"/><g class="cls-2"><path class="cls-3" d="M376.21,297.59,395,367.73H377.05l-14.42-58.8-14.7,58.8H330.15l18.62-70.14H333.09V282.47h20.58v-19.8l17.5,10v9.8h21.28v15.12Zm10.64,7.7,12.32,10V272.67h15.68V400.21H399.17v-68.4l-12.32-10ZM421,272.67h15.4V400.21H421Z"/></g><g class="cls-4"><path class="cls-3" d="M669.14,709.69q-8.13,0-12.39-3.71t-4.27-11.83V674h17.08v4.08q.13,3.51,2.17,5a8.4,8.4,0,0,0,5.11,1.48h56v25.12Zm45.64-127.54H732V669H714.78Z"/></g><path class="cls-1" d="M662.79,582a10.07,10.07,0,0,0-10.06,10.06V669h50V582Zm12,26.25a1.75,1.75,0,0,1-1.75,1.75h-10a1.75,1.75,0,0,1-1.75-1.75v-7.5A11.75,11.75,0,0,1,673.08,589h0a1.75,1.75,0,0,1,1.75,1.75Z"/><polygon class="cls-1" points="352.37 367.73 371.83 367.73 362.56 319.48 352.37 367.73"/><path class="cls-1" d="M114.62,8A33.79,33.79,0,1,0,148.4,41.79,33.79,33.79,0,0,0,114.62,8Zm12.21,57a9,9,0,1,1,9-9A9,9,0,0,1,126.83,65Z"/></g></g></svg>